<svg width="24" height="19" viewBox="0 0 24 19" fill="none" xmlns="http://www.w3.org/2000/svg">
<path d="M5.41047 8.03995C4.64374 7.92727 3.87172 7.85401 3.09747 7.82045C2.75797 7.79945 2.31047 7.97645 2.23297 8.83245C2.21851 9.04771 2.23929 9.26389 2.29447 9.47245C2.3459 9.69024 2.46184 9.88745 2.62714 10.0383C2.79243 10.1891 2.9994 10.2866 3.22097 10.318L6.53047 10.784C6.547 10.7867 6.56372 10.788 6.58047 10.788C6.64512 10.788 6.70868 10.7714 6.76499 10.7396C6.8213 10.7079 6.86845 10.6621 6.90185 10.6067C6.93526 10.5514 6.9538 10.4884 6.95566 10.4237C6.95752 10.3591 6.94264 10.2951 6.91247 10.238C5.82397 8.16745 5.54497 8.08145 5.41047 8.03995ZM3.32547 9.57545C3.25277 9.56433 3.18508 9.53166 3.13115 9.48165C3.07722 9.43165 3.03954 9.36661 3.02297 9.29495C2.98809 9.16651 2.97358 9.03339 2.97997 8.90045C2.98116 8.78663 3.00691 8.6744 3.05547 8.57145H3.06597C3.92097 8.62495 4.88247 8.70245 5.14297 8.74845C5.42449 9.12514 5.67625 9.52318 5.89597 9.93895L3.32547 9.57545Z" fill="#0F1015"/>
<path d="M20.781 7.82039C20.0067 7.85394 19.2347 7.9272 18.468 8.03988C18.3335 8.08138 18.054 8.16738 16.964 10.2399C16.9338 10.2971 16.9189 10.3611 16.9208 10.4257C16.9227 10.4903 16.9412 10.5533 16.9746 10.6087C17.008 10.664 17.0552 10.7098 17.1115 10.7415C17.1678 10.7733 17.2313 10.7899 17.296 10.7899C17.3127 10.79 17.3295 10.7886 17.346 10.7859L20.6555 10.3199C20.8771 10.2885 21.084 10.1911 21.2493 10.0402C21.4146 9.88939 21.5306 9.69218 21.582 9.47438C21.637 9.26579 21.6578 9.04964 21.6435 8.83439C21.5675 7.97639 21.1175 7.79989 20.781 7.82039ZM20.8555 9.29488C20.8389 9.36654 20.8012 9.43158 20.7473 9.48158C20.6934 9.53159 20.6257 9.56427 20.553 9.57538L17.9825 9.93738C18.2024 9.5218 18.4539 9.12379 18.735 8.74688C19 8.70038 19.9625 8.62288 20.817 8.56988C20.8715 8.67145 20.8995 8.78512 20.8985 8.90039C20.9049 9.03333 20.8904 9.16645 20.8555 9.29488Z" fill="#0F1015"/>
<path d="M17.1305 8.38896C17.0927 8.335 17.0414 8.29191 16.9817 8.264C16.9221 8.2361 16.8561 8.22436 16.7905 8.22996C16.756 8.23296 13.3115 8.52996 11.9405 8.52996C10.5695 8.52996 7.12448 8.22996 7.09048 8.22996C7.02482 8.22418 6.95879 8.23582 6.89908 8.26373C6.83936 8.29163 6.78806 8.3348 6.75037 8.38887C6.71268 8.44295 6.68993 8.50602 6.68442 8.5717C6.67891 8.63739 6.69083 8.70336 6.71898 8.76296L7.70648 10.8585C7.73536 10.9194 7.78005 10.9714 7.8359 11.0091C7.89175 11.0469 7.9567 11.0689 8.02398 11.073L11.9385 11.297L15.859 11.073C15.9263 11.069 15.9913 11.047 16.0471 11.0093C16.103 10.9715 16.1477 10.9194 16.1765 10.8585L17.164 8.76296C17.1919 8.70321 17.2035 8.63714 17.1976 8.57145C17.1918 8.50575 17.1686 8.44279 17.1305 8.38896ZM15.5915 10.339L11.9395 10.55L8.28948 10.339L7.67398 9.03296C8.75348 9.12096 10.8935 9.28296 11.941 9.28296C12.9885 9.28296 15.129 9.12096 16.209 9.03296L15.5915 10.339Z" fill="#0F1015"/>
<path d="M22.8451 15.6856C22.7456 15.6856 22.6502 15.7251 22.5799 15.7954C22.5096 15.8657 22.4701 15.9611 22.4701 16.0606V17.6176C22.4701 17.6527 22.4561 17.6864 22.4313 17.7112C22.4064 17.7361 22.3727 17.7501 22.3376 17.7501H20.3896C20.3544 17.7501 20.3207 17.7361 20.2959 17.7112C20.271 17.6864 20.2571 17.6527 20.2571 17.6176V16.9756C20.2571 16.8761 20.2176 16.7807 20.1472 16.7104C20.0769 16.6401 19.9815 16.6006 19.8821 16.6006C19.7826 16.6006 19.6872 16.6401 19.6169 16.7104C19.5466 16.7807 19.5071 16.8761 19.5071 16.9756V17.6176C19.5073 17.8515 19.6004 18.0758 19.7659 18.2413C19.9313 18.4067 20.1556 18.4998 20.3896 18.5001H22.3396C22.5736 18.4998 22.7979 18.4067 22.9633 18.2413C23.1288 18.0758 23.2218 17.8515 23.2221 17.6176V16.0606C23.2221 16.0111 23.2123 15.9622 23.1933 15.9166C23.1744 15.871 23.1466 15.8295 23.1115 15.7947C23.0765 15.7598 23.0349 15.7322 22.9892 15.7135C22.9435 15.6948 22.8945 15.6853 22.8451 15.6856Z" fill="#0F1015"/>
<path d="M3.97059 16.6C3.87114 16.6 3.77575 16.6396 3.70543 16.7099C3.6351 16.7802 3.59559 16.8756 3.59559 16.975V17.617C3.59559 17.6521 3.5817 17.6857 3.55696 17.7106C3.53222 17.7354 3.49865 17.7494 3.46359 17.7495H1.51359C1.47854 17.7494 1.44496 17.7354 1.42022 17.7106C1.39548 17.6857 1.38159 17.6521 1.38159 17.617V16.0605C1.38159 15.9611 1.34208 15.8657 1.27176 15.7954C1.20143 15.7251 1.10605 15.6855 1.00659 15.6855C0.907136 15.6855 0.811753 15.7251 0.741427 15.7954C0.671101 15.8657 0.631592 15.9611 0.631592 16.0605V17.6175C0.631724 17.8513 0.724538 18.0755 0.889686 18.2409C1.05483 18.4063 1.27884 18.4995 1.51259 18.5H3.46259C3.69652 18.4998 3.92078 18.4067 4.08614 18.2412C4.25151 18.0758 4.34446 17.8515 4.34459 17.6175V16.9755C4.34472 16.8762 4.30541 16.7808 4.23529 16.7104C4.16516 16.64 4.06996 16.6003 3.97059 16.6Z" fill="#0F1015"/>
<path d="M23.154 3.92739L21.904 3.71139C21.7214 3.67769 21.5327 3.70722 21.3691 3.79511C21.2055 3.883 21.0767 4.024 21.004 4.19489L20.9365 4.34489L20.0505 2.25489C19.8502 1.77567 19.5306 1.35571 19.122 1.03503C18.7134 0.714338 18.2296 0.5036 17.7165 0.422886C15.8047 0.13265 13.8732 -0.00877458 11.9395 -0.000113384C10.0058 -0.00860911 8.0743 0.132983 6.16249 0.423387C5.64946 0.504052 5.16563 0.714715 4.75708 1.03531C4.34852 1.35591 4.02884 1.77576 3.82849 2.25489L2.93949 4.34689L2.87649 4.19989C2.80433 4.02827 2.67588 3.88634 2.5123 3.79746C2.34871 3.70858 2.15974 3.67805 1.97649 3.71089L0.726488 3.92739C0.523634 3.96103 0.33931 4.06559 0.206353 4.22244C0.0733963 4.3793 0.000442351 4.57826 0.000488303 4.78389V5.02939C0.000675568 5.22732 0.0681995 5.41931 0.191961 5.57378C0.315723 5.72826 0.488357 5.83603 0.681488 5.87939L1.86849 6.14739L1.34249 6.94989C0.886719 7.6433 0.64422 8.4551 0.644988 9.28489V13.5499C0.644988 15.1594 1.76599 16.1999 3.50199 16.1999H20.377C22.113 16.1999 23.234 15.1599 23.234 13.5499V9.28289C23.2348 8.4531 22.9923 7.6413 22.5365 6.94789L22.0105 6.14789L23.1935 5.88089C23.3872 5.83805 23.5605 5.73053 23.6849 5.57603C23.8093 5.42153 23.8774 5.22926 23.878 5.03089V4.78539C23.8786 4.57977 23.8061 4.38063 23.6735 4.22348C23.5409 4.06634 23.3568 3.9614 23.154 3.92739ZM0.842988 5.14539C0.816669 5.13947 0.793157 5.12475 0.776338 5.10365C0.759519 5.08256 0.7504 5.05636 0.750488 5.02939V4.78389C0.750082 4.75556 0.76001 4.72806 0.778416 4.70652C0.796822 4.68499 0.822444 4.6709 0.850488 4.66689L2.10599 4.44989C2.1236 4.44672 2.14176 4.45003 2.15711 4.45923C2.17247 4.46842 2.18397 4.48287 2.18949 4.49989L2.49599 5.19289L2.30899 5.47789L0.842988 5.14539ZM22.484 12.3849H2.34549C2.24603 12.3849 2.15065 12.4244 2.08032 12.4947C2.01 12.565 1.97049 12.6604 1.97049 12.7599C1.97049 12.8593 2.01 12.9547 2.08032 13.0251C2.15065 13.0954 2.24603 13.1349 2.34549 13.1349H22.484V13.5499C22.484 14.7389 21.6965 15.4499 20.377 15.4499H3.50199C2.18249 15.4499 1.39499 14.7394 1.39499 13.5499V9.28289C1.39446 8.59921 1.59418 7.93034 1.96949 7.35889L3.15149 5.55589H19.512C19.6114 5.55589 19.7068 5.51638 19.7772 5.44605C19.8475 5.37573 19.887 5.28034 19.887 5.18089C19.887 5.08143 19.8475 4.98605 19.7772 4.91572C19.7068 4.8454 19.6114 4.80589 19.512 4.80589H3.56099L4.51899 2.54989C4.66977 2.18793 4.91081 1.87065 5.2191 1.62836C5.52739 1.38607 5.89265 1.22684 6.27999 1.16589C8.15284 0.880606 10.0451 0.74152 11.9395 0.749887C13.8339 0.741023 15.7261 0.879608 17.599 1.16439C17.9865 1.22549 18.3519 1.38494 18.6602 1.6275C18.9685 1.87007 19.2094 2.18764 19.36 2.54989L20.456 5.13339C20.4645 5.15406 20.475 5.17382 20.4875 5.19239L21.9095 7.36089C22.2848 7.93234 22.4845 8.60121 22.484 9.28489V12.3849ZM23.128 5.02939C23.128 5.0569 23.1185 5.08357 23.1011 5.10489C23.0837 5.1262 23.0594 5.14086 23.0325 5.14639L21.5715 5.47639L21.3845 5.19139L21.693 4.49139C21.6999 4.47623 21.7117 4.46379 21.7264 4.45601C21.7412 4.44823 21.7581 4.44555 21.7745 4.44839L23.0275 4.66539C23.0555 4.6694 23.0812 4.68349 23.0996 4.70502C23.118 4.72656 23.1279 4.75406 23.1275 4.78239L23.128 5.02939Z" fill="#0F1015"/>
</svg>
